<svg width="486" height="150" viewBox="0 0 486 150" fill="none" xmlns="http://www.w3.org/2000/svg">
<path d="M71.9471 2.45892L134.255 113.115H9.63909L71.9471 2.45892Z" fill="url(#paint0_linear)"/>
<path d="M70.7723 2.45892L7.31689 113.115L57.8462 96.6807M70.7723 2.45892L136.578 113.115L87.2237 96.6807M70.7723 2.45892L57.8462 96.6807M70.7723 2.45892V113.115M70.7723 2.45892L87.2237 96.6807M87.2237 96.6807L70.7723 113.115M70.7723 113.115L57.8462 96.6807" stroke="#1A324E" stroke-width="2"/>
<path d="M153.649 0H199.988V81.1476H153.649V0Z" fill="url(#paint1_linear)"/>
<path d="M153.649 81.1476H199.988V113.115H153.649V81.1476Z" fill="url(#paint2_linear)"/>
<path d="M199.988 81.1476H260.96V113.115H199.988V81.1476Z" fill="url(#paint3_linear)"/>
<path d="M265.838 2.45902H297.544V29.5082H265.838V2.45902Z" fill="url(#paint4_linear)"/>
<path d="M346.321 2.45902H378.027V29.5082H346.321V2.45902Z" fill="url(#paint5_linear)"/>
<path d="M297.544 2.45902H346.321V29.5082H297.544V2.45902Z" fill="url(#paint6_linear)"/>
<path d="M297.544 27.0492H346.321V113.115H297.544V27.0492Z" fill="url(#paint7_linear)"/>
<path d="M423.146 2.45902L485.454 113.115H360.838L423.146 2.45902Z" fill="url(#paint8_linear)"/>
<path d="M153.649 111.885V1.22949H199.988V82.3771H260.96V111.885H153.649Z" stroke="#1A324E" stroke-width="2"/>
<path d="M376.807 2.45892H265.838V29.5081H298.763V111.885H346.321V29.5081H376.807V2.45892Z" stroke="#1A324E" stroke-width="2"/>
<path d="M363.394 113.115L424.366 3.6886L484.119 113.115H363.394Z" stroke="#1A324E" stroke-width="2"/>
<defs>
<linearGradient id="paint0_linear" x1="70.7277" y1="99.5901" x2="70.7277" y2="2.45892" gradientUnits="userSpaceOnUse">
<stop stop-color="white"/>
<stop offset="0.630208" stop-color="#50DFC5"/>
<stop offset="0.760417" stop-color="#57CDD4"/>
<stop offset="1" stop-color="#4391D9"/>
</linearGradient>
<linearGradient id="paint1_linear" x1="326.81" y1="113.115" x2="328.05" y2="0.000222136" gradientUnits="userSpaceOnUse">
<stop stop-color="#50DFC5"/>
<stop offset="1" stop-color="#4391D9"/>
</linearGradient>
<linearGradient id="paint2_linear" x1="326.81" y1="113.115" x2="328.05" y2="0.000222136" gradientUnits="userSpaceOnUse">
<stop stop-color="#50DFC5"/>
<stop offset="1" stop-color="#4391D9"/>
</linearGradient>
<linearGradient id="paint3_linear" x1="326.81" y1="113.115" x2="328.05" y2="0.000222136" gradientUnits="userSpaceOnUse">
<stop stop-color="#50DFC5"/>
<stop offset="1" stop-color="#4391D9"/>
</linearGradient>
<linearGradient id="paint4_linear" x1="326.81" y1="113.115" x2="328.05" y2="0.000222136" gradientUnits="userSpaceOnUse">
<stop stop-color="#50DFC5"/>
<stop offset="1" stop-color="#4391D9"/>
</linearGradient>
<linearGradient id="paint5_linear" x1="326.81" y1="113.115" x2="328.05" y2="0.000222136" gradientUnits="userSpaceOnUse">
<stop stop-color="#50DFC5"/>
<stop offset="1" stop-color="#4391D9"/>
</linearGradient>
<linearGradient id="paint6_linear" x1="326.81" y1="113.115" x2="328.05" y2="0.000222136" gradientUnits="userSpaceOnUse">
<stop stop-color="#50DFC5"/>
<stop offset="1" stop-color="#4391D9"/>
</linearGradient>
<linearGradient id="paint7_linear" x1="326.81" y1="113.115" x2="328.05" y2="0.000222136" gradientUnits="userSpaceOnUse">
<stop stop-color="#50DFC5"/>
<stop offset="1" stop-color="#4391D9"/>
</linearGradient>
<linearGradient id="paint8_linear" x1="326.81" y1="113.115" x2="328.05" y2="0.000222136" gradientUnits="userSpaceOnUse">
<stop stop-color="#50DFC5"/>
<stop offset="1" stop-color="#4391D9"/>
</linearGradient>
</defs>
</svg>
